<svg xmlns="http://www.w3.org/2000/svg" viewBox="0 0 760 180" role="img" aria-label="ALIEVA LAW"><rect width="760" height="180" fill="none"/><g transform="translate(20 18)"><path d="M72 4 132 32v42c0 43-25 68-60 84-35-16-60-41-60-84V32L72 4Z" fill="#0f172a"/><path d="M72 17 118 39v35c0 33-18 53-46 66-28-13-46-33-46-66V39l46-22Z" fill="#1d4ed8"/><path d="M72 31 101 124H84l-5-18H65l-5 18H43L72 31Zm-3 61h7l-4-29-3 29Z" fill="#ffffff"/><path d="M38 70h68" stroke="#e5e7eb" stroke-width="5" stroke-linecap="round"/><path d="M38 70l-18 38h36L38 70Z" fill="none" stroke="#e5e7eb" stroke-width="3"/><path d="M106 70 88 108h36L106 70Z" fill="none" stroke="#e5e7eb" stroke-width="3"/><path d="M24 108c7 8 21 8 28 0H24Zm68 0c7 8 21 8 28 0H92Z" fill="#e5e7eb"/></g><g transform="translate(190 42)"><text x="0" y="52" font-family="Georgia, 'Times New Roman', serif" font-size="56" font-weight="700" letter-spacing="8" fill="#0f172a">ALIEVA</text><text x="335" y="52" font-family="Georgia, 'Times New Roman', serif" font-size="56" font-weight="700" letter-spacing="8" fill="#334155">LAW</text><line x1="0" y1="88" x2="82" y2="88" stroke="#1d4ed8" stroke-width="3"/><text x="102" y="98" font-family="Arial, sans-serif" font-size="23" letter-spacing="2" fill="#334155">Адвокат Алиева Эльмира Ханоглановна</text></g></svg>